<svg xmlns="http://www.w3.org/2000/svg" id="Layer_2" data-name="Layer 2" viewBox="0 0 285.82 60"><defs><style>      .cls-1, .cls-2 {        fill: #fff;      }      .cls-2 {        fill-rule: evenodd;      }    </style></defs><g id="Camada_1" data-name="Camada 1"><g><path class="cls-1" d="m25.96,49.56v-14.89c0-5.77,4.68-10.45,10.45-10.45,5.77,0,10.44,4.67,10.44,10.45v14.89c0,5.77-4.68,10.44-10.44,10.44-5.77,0-10.45-4.67-10.45-10.44m5.8,0c0,2.56,2.08,4.64,4.64,4.64,2.56,0,4.64-2.08,4.64-4.64v-14.89c0-2.57-2.08-4.64-4.64-4.64-2.57,0-4.64,2.08-4.64,4.64v14.89Z"></path><path class="cls-1" d="m135.07,49.56v-14.89c0-5.77,4.67-10.45,10.44-10.45s10.45,4.67,10.45,10.45h-5.8c0-2.57-2.08-4.64-4.65-4.64-2.57,0-4.64,2.08-4.64,4.64v14.89c0,2.56,2.08,4.64,4.64,4.64,2.56,0,4.64-2.08,4.65-4.64h5.8c0,5.77-4.68,10.44-10.45,10.44-5.77,0-10.44-4.67-10.44-10.44"></path><path class="cls-1" d="m68.92,10.52v14.79c-1.4-.7-2.97-1.1-4.64-1.1-5.77,0-10.44,4.67-10.45,10.44v14.9c0,5.77,4.68,10.44,10.45,10.44,5.77,0,10.44-4.68,10.44-10.44V10.52h-5.8Zm0,39.04c0,2.56-2.08,4.64-4.64,4.64-2.57,0-4.64-2.08-4.64-4.64v-14.9c0-2.56,2.08-4.63,4.64-4.64,2.56,0,4.64,2.08,4.64,4.64v14.9Z"></path><path class="cls-1" d="m182.92,58.72v-24.06c0-5.77-4.68-10.44-10.45-10.44-1.67,0-3.25.4-4.65,1.1v-14.8h-5.8v48.2h5.8v-24.06c0-2.57,2.08-4.64,4.65-4.64,2.56,0,4.64,2.08,4.64,4.64v24.06h5.8Z"></path><rect class="cls-1" x="191.35" y="25.49" width="5.8" height="33.23"></rect><rect class="cls-1" x="191.35" y="10.52" width="5.81" height="6.29"></rect><rect class="cls-1" x="234.93" y="25.49" width="5.8" height="33.23"></rect><rect class="cls-1" x="234.93" y="10.52" width="5.8" height="6.29"></rect><path class="cls-1" d="m92.15,54.19c-2.56,0-4.64-2.07-4.64-4.64v-4.45h4.64c5.77,0,10.44-4.67,10.45-10.44h0c0-1.08-.17-2.13-.47-3.11-.29-.93-.71-1.8-1.23-2.6-.03-.04-.05-.09-.08-.13-.01-.02-.03-.04-.04-.05-1.88-2.75-5.04-4.55-8.62-4.55h0s-.09,0-.14,0c-5.7.08-10.3,4.72-10.3,10.44v14.89c0,5.77,4.68,10.44,10.44,10.44s10.44-4.67,10.45-10.44h-5.8c0,2.56-2.08,4.63-4.64,4.64m0-14.89h-4.64v-4.64c0-2.57,2.08-4.64,4.64-4.64.31,0,.61.03.9.09.01,0,.02,0,.03,0,.28.06.55.14.81.25.02,0,.04.01.06.02.07.03.14.06.2.1.07.03.14.06.2.1.02,0,.04.02.06.03.63.36,1.18.85,1.58,1.45.02.02.03.05.04.07.07.1.13.2.19.31.03.06.06.13.09.19.04.07.07.14.1.22.04.08.06.17.09.26.02.06.04.11.06.17.02.08.04.15.06.23.02.07.04.14.06.21.02.07.02.15.04.23.01.08.03.16.04.23,0,.07,0,.15.01.22,0,.08.01.17.01.25,0,2.56-2.08,4.63-4.64,4.64"></path><path class="cls-1" d="m220.69,58.72v-24.06c0-2.56-2.08-4.64-4.64-4.64-2.57,0-4.64,2.08-4.64,4.64v24.06h-5.8v-24.06c0-5.77,4.68-10.44,10.45-10.44,5.77,0,10.44,4.67,10.45,10.44v24.06h-5.8Z"></path><path class="cls-1" d="m108.11,49.56h5.8c0,2.56,2.08,4.64,4.64,4.64,2.56,0,4.64-2.08,4.64-4.64,0-.96-.15-1.55-.32-1.94-.18-.39-.36-.62-.71-.9-.67-.57-2.23-1.15-4.38-1.72-1.98-.56-4.21-1.15-6.24-2.72-2.07-1.54-3.5-4.34-3.44-7.62,0-5.77,4.68-10.44,10.45-10.44s10.44,4.68,10.45,10.44h-5.81c0-2.56-2.08-4.64-4.64-4.64-2.56,0-4.64,2.08-4.64,4.64.07,1.96.47,2.4,1.21,3.05.77.64,2.31,1.19,4.2,1.69,1.68.47,3.33.93,4.91,1.77,1.57.82,3.13,2.18,3.96,4.12.56,1.28.81,2.71.81,4.27,0,5.77-4.68,10.44-10.45,10.44s-10.44-4.67-10.44-10.44"></path><polygon class="cls-1" points="30.34 10.51 0 10.51 0 16.31 12.27 16.31 12.27 58.72 18.07 58.72 18.07 16.31 30.34 16.31 30.34 10.51"></polygon><path class="cls-2" d="m285.24,6.88c-.49-1.28-1.07-2.03-2-2.64-.74-.49-5.41-2.35-6.21-2.54-2.43-.58-4.48,1.16-5.11,1.78-1.35,1.33-2.97,2.8-3.75,4.63-4.77-7.74-9.52-8.6-11.46-7.92-.69.24-6.45,3.31-6.99,3.85-.67.68-.76,3.69,1.91,9.3,2.38,4.99,9.87,12.02,14.17,14.84-2.06.91-4.05,1.47-5.48,1.38.44,1.28,3.61,1.91,4.94,1.98,3.87.2,11.07-3.08,15.78-9.43,1.8-2.31,3.37-5.15,4.29-8.59.53-1.98.79-4.32-.09-6.65m-31.94-2.75s1.31-.75,2.63-.4c4.68,1.21,9.11,6.07,11.3,8.8,1.18,1.59,1.37,2.28,2.07,2.18,1.59-.23.91-1.86.91-1.86-.05-.16-.1-.31-.16-.47,0-.01.02-.03.03-.04,5.13-7.91,8.83-8.62,8.83-8.62,2.84,2.27.42,13.04-4.37,18.29-.83.91-1.7,1.75-2.58,2.5-.94.73-2.02,1.45-3.14,2.11-10.06-7.03-16.02-21.68-15.52-22.49"></path></g></g></svg>
